<svg width="52" height="60" viewBox="0 0 52 60" fill="none" xmlns="http://www.w3.org/2000/svg">
<path d="M35.2676 4.02061V55.9793C35.2676 57.6875 33.883 59.0721 32.1748 59.0721H4.24906C2.54094 59.0721 1.15625 57.6875 1.15625 55.9793V4.02061C1.15625 2.31248 2.54094 0.927795 4.24906 0.927795H32.1748C33.883 0.927913 35.2676 2.3126 35.2676 4.02061Z" fill="white"/>
<path d="M26.8156 0.927887V3.39715C26.8156 4.76367 25.7078 5.87133 24.3414 5.87133H12.0816C10.7151 5.87133 9.60742 4.76355 9.60742 3.39715V0.927887H26.8156Z" fill="#38BFF2"/>
<path d="M50.846 20.765V40.4722C50.846 41.8387 49.7382 42.9464 48.3718 42.9464H18.2109V18.2907H48.3717C49.7382 18.2907 50.846 19.3985 50.846 20.765Z" fill="#38BFF2"/>
<path d="M18.2109 23.3475H50.846V29.4782H18.2109V23.3475Z" fill="#D7E9FF"/>
<path d="M10.056 54.7423C9.71441 54.7423 9.4375 55.019 9.4375 55.3608C9.4375 55.7027 9.71441 55.9793 10.056 55.9793H26.3654C26.707 55.9793 26.9839 55.7026 26.9839 55.3608C26.9839 55.0188 26.707 54.7423 26.3654 54.7423H10.056Z" fill="#1A2E35"/>
<path d="M22.6966 4.01825H23.8011C24.1427 4.01825 24.4196 3.74157 24.4196 3.39974C24.4196 3.0579 24.1427 2.78122 23.8011 2.78122H22.6966C22.355 2.78122 22.0781 3.0579 22.0781 3.39974C22.0781 3.74157 22.355 4.01825 22.6966 4.01825Z" fill="#1A2E35"/>
<path d="M12.6205 4.01825H19.7991C20.1407 4.01825 20.4177 3.74157 20.4177 3.39974C20.4177 3.0579 20.1407 2.78122 19.7991 2.78122H12.6205C12.2789 2.78122 12.002 3.0579 12.002 3.39974C12.002 3.74157 12.2789 4.01825 12.6205 4.01825Z" fill="#1A2E35"/>
<path d="M48.3713 17.6724H35.8854V4.02059C35.8854 1.97403 34.2207 0.309265 32.1741 0.309265C26.0922 0.309265 10.3342 0.309265 4.24844 0.309265C2.20187 0.309265 0.537109 1.97403 0.537109 4.02059V55.9793C0.537109 58.0259 2.20187 59.6906 4.24844 59.6906H32.174C34.2205 59.6906 35.8853 58.0259 35.8853 55.9793V43.5648H48.3712C50.0765 43.5648 51.464 42.1773 51.464 40.472C51.464 33.2803 51.464 27.8475 51.464 20.7652C51.4641 19.0599 50.0765 17.6724 48.3713 17.6724ZM50.2269 20.7652V22.729H18.8291V18.9095H48.3713C49.3946 18.9095 50.2269 19.7419 50.2269 20.7652ZM50.2269 28.8595H18.8291V23.966H50.2269V28.8595ZM26.1966 1.54641V3.39727C26.1966 4.42055 25.3642 5.25294 24.3409 5.25294H12.0812C11.058 5.25294 10.2256 4.42055 10.2256 3.39727V1.54641H26.1966ZM34.6483 55.9794C34.6483 57.3439 33.5383 58.4536 32.1741 58.4536H4.24832C2.88402 58.4536 1.77414 57.3439 1.77414 55.9794V4.02059C1.77414 2.65606 2.88414 1.54641 4.24832 1.54641H8.98832V3.39727C8.98832 5.10259 10.3758 6.49009 12.0811 6.49009H24.3408C26.0461 6.49009 27.4336 5.10259 27.4336 3.39727V1.54641H32.174C33.5383 1.54641 34.6482 2.65606 34.6482 4.02059V17.6724H18.829V14.8822C18.829 14.5403 18.5521 14.2637 18.2105 14.2637C17.8689 14.2637 17.592 14.5404 17.592 14.8822V46.3482C17.592 46.6902 17.8689 46.9668 18.2105 46.9668C18.5521 46.9668 18.829 46.6901 18.829 46.3482V43.5647H34.6482V55.9794H34.6483ZM48.3713 42.3277H18.8291V34.7672H39.2793C39.6209 34.7672 39.8978 34.4905 39.8978 34.1487C39.8978 33.8067 39.6209 33.5302 39.2793 33.5302H18.8291V30.0967H50.2269V40.472C50.2269 41.4953 49.3946 42.3277 48.3713 42.3277Z" fill="#1A2E35"/>
<path d="M39.2792 37.657H37.5072C37.1656 37.657 36.8887 37.9337 36.8887 38.2756C36.8887 38.6175 37.1656 38.8941 37.5072 38.8941H39.2792C39.6208 38.8941 39.8977 38.6174 39.8977 38.2756C39.8977 37.9337 39.6208 37.657 39.2792 37.657Z" fill="#1A2E35"/>
<path d="M34.2147 37.657H32.4427C32.1011 37.657 31.8242 37.9337 31.8242 38.2756C31.8242 38.6175 32.1011 38.8941 32.4427 38.8941H34.2147C34.5563 38.8941 34.8332 38.6174 34.8332 38.2756C34.8332 37.9337 34.5563 37.657 34.2147 37.657Z" fill="#1A2E35"/>
<path d="M29.1483 37.657H27.3763C27.0347 37.657 26.7578 37.9337 26.7578 38.2756C26.7578 38.6175 27.0347 38.8941 27.3763 38.8941H29.1483C29.4899 38.8941 29.7668 38.6174 29.7668 38.2756C29.767 37.9337 29.4899 37.657 29.1483 37.657Z" fill="#1A2E35"/>
<path d="M24.0839 37.657H22.3119C21.9703 37.657 21.6934 37.9337 21.6934 38.2756C21.6934 38.6175 21.9703 38.8941 22.3119 38.8941H24.0839C24.4255 38.8941 24.7024 38.6174 24.7024 38.2756C24.7025 37.9337 24.4255 37.657 24.0839 37.657Z" fill="#1A2E35"/>
</svg>
