<svg width="62" height="63" viewBox="0 0 62 63" fill="none" xmlns="http://www.w3.org/2000/svg">
<path d="M60.5549 8.12073V60.2324C60.5549 61.6005 59.4474 62.708 58.0793 62.708H7.97421C6.60613 62.708 5.49862 61.6005 5.49862 60.2324V56.988C4.16314 56.988 2.9514 56.4408 2.0784 55.5678C1.19245 54.6948 0.658203 53.4766 0.658203 52.1411H5.49862V8.12073C5.49862 6.75264 6.60613 5.64513 7.97421 5.64513H58.0793C59.4476 5.64513 60.5549 6.75264 60.5549 8.12073Z" fill="white"/>
<path d="M5.68829 56.4094C3.12721 56.4094 1.87716 53.3605 1.57227 51.8361L51.4219 51.3788C52.3633 55.1443 54.4933 56.2633 55.85 56.4094H56.4526C56.279 56.4311 56.0752 56.4337 55.85 56.4094H5.68829Z" fill="#38BFF2"/>
<path d="M16.1815 24.8533C14.0222 24.8533 12.2656 26.6061 12.2656 28.7602C12.2656 30.9151 14.0222 32.6679 16.1815 32.6679C18.3358 32.6679 20.0884 30.9151 20.0884 28.7602C20.0884 26.6061 18.3358 24.8533 16.1815 24.8533Z" fill="#38BFF2"/>
<path d="M16.1815 24.8532C14.0222 24.8532 12.2656 26.6061 12.2656 28.7602C12.2656 30.915 14.0222 32.6678 16.1815 32.6678C18.3358 32.6678 20.0884 30.915 20.0884 28.7602C20.0884 26.6061 18.3358 24.8532 16.1815 24.8532ZM16.1815 31.3648C14.7408 31.3648 13.5686 30.1961 13.5686 28.7602C13.5686 27.3242 14.7408 26.1561 16.1815 26.1561C17.6174 26.1561 18.7856 27.3242 18.7856 28.7602C18.7856 30.1961 17.6174 31.3648 16.1815 31.3648Z" fill="#1A2E35"/>
<path d="M27.7518 24.8532C25.5925 24.8532 23.8359 26.6061 23.8359 28.7602C23.8359 30.915 25.5925 32.6678 27.7518 32.6678C29.9063 32.6678 31.659 30.915 31.659 28.7602C31.6592 26.6061 29.9063 24.8532 27.7518 24.8532Z" fill="#38BFF2"/>
<path d="M27.7518 24.8532C25.5925 24.8532 23.8359 26.6061 23.8359 28.7602C23.8359 30.915 25.5925 32.6678 27.7518 32.6678C29.9063 32.6678 31.659 30.915 31.659 28.7602C31.6592 26.6061 29.9063 24.8532 27.7518 24.8532ZM27.7518 31.3648C26.3111 31.3648 25.139 30.1961 25.139 28.7602C25.139 27.3242 26.3111 26.1561 27.7518 26.1561C29.1877 26.1561 30.3562 27.3242 30.3562 28.7602C30.3562 30.1961 29.1877 31.3648 27.7518 31.3648Z" fill="#1A2E35"/>
<path d="M39.3241 24.9315C37.1648 24.9315 35.4082 26.6843 35.4082 28.8385C35.4082 30.9933 37.1648 32.7461 39.3241 32.7461C41.4786 32.7461 43.2313 30.9933 43.2313 28.8385C43.2313 26.6843 41.4786 24.9315 39.3241 24.9315Z" fill="#38BFF2"/>
<path d="M39.3241 24.8532C37.1648 24.8532 35.4082 26.6061 35.4082 28.7602C35.4082 30.915 37.1648 32.6678 39.3241 32.6678C41.4786 32.6678 43.2313 30.915 43.2313 28.7602C43.2313 26.6061 41.4786 24.8532 39.3241 24.8532ZM39.3241 31.3648C37.8834 31.3648 36.7112 30.1961 36.7112 28.7602C36.7112 27.3242 37.8834 26.1561 39.3241 26.1561C40.76 26.1561 41.9284 27.3242 41.9284 28.7602C41.9283 30.1961 40.76 31.3648 39.3241 31.3648Z" fill="#1A2E35"/>
<path d="M50.8944 32.6678C53.0489 32.6678 54.8016 30.915 54.8016 28.7602C54.8016 26.6059 53.0488 24.8532 50.8944 24.8532C48.7351 24.8532 46.9785 26.6061 46.9785 28.7602C46.9785 30.915 48.7351 32.6678 50.8944 32.6678Z" fill="#38BFF2"/>
<path d="M50.8944 32.6678C53.0489 32.6678 54.8016 30.915 54.8016 28.7602C54.8016 26.6059 53.0488 24.8532 50.8944 24.8532C48.7351 24.8532 46.9785 26.6061 46.9785 28.7602C46.9785 30.915 48.7351 32.6678 50.8944 32.6678ZM50.8944 26.1563C52.3303 26.1563 53.4987 27.3244 53.4987 28.7603C53.4987 30.1963 52.3303 31.365 50.8944 31.365C49.4537 31.365 48.2815 30.1963 48.2815 28.7603C48.2815 27.3242 49.4537 26.1563 50.8944 26.1563Z" fill="#1A2E35"/>
<path d="M16.1815 35.8293C14.0222 35.8293 12.2656 37.5821 12.2656 39.737C12.2656 41.8912 14.0222 43.6439 16.1815 43.6439C18.3358 43.6439 20.0884 41.8911 20.0884 39.737C20.0884 37.5821 18.3358 35.8293 16.1815 35.8293Z" fill="#38BFF2"/>
<path d="M16.1815 35.8293C14.0222 35.8293 12.2656 37.5821 12.2656 39.737C12.2656 41.8912 14.0222 43.6439 16.1815 43.6439C18.3358 43.6439 20.0884 41.8911 20.0884 39.737C20.0884 37.5821 18.3358 35.8293 16.1815 35.8293ZM16.1815 42.3409C14.7408 42.3409 13.5686 41.1728 13.5686 39.7368C13.5686 38.3009 14.7408 37.1322 16.1815 37.1322C17.6174 37.1322 18.7856 38.3009 18.7856 39.7368C18.7856 41.1728 17.6174 42.3409 16.1815 42.3409Z" fill="#1A2E35"/>
<path d="M27.7518 35.8293C25.5925 35.8293 23.8359 37.5821 23.8359 39.737C23.8359 41.8912 25.5925 43.6439 27.7518 43.6439C29.9063 43.6439 31.659 41.8911 31.659 39.737C31.6592 37.5821 29.9063 35.8293 27.7518 35.8293Z" fill="#38BFF2"/>
<path d="M27.7518 35.8293C25.5925 35.8293 23.8359 37.5821 23.8359 39.737C23.8359 41.8912 25.5925 43.6439 27.7518 43.6439C29.9063 43.6439 31.659 41.8911 31.659 39.737C31.6592 37.5821 29.9063 35.8293 27.7518 35.8293ZM27.7518 42.3409C26.3111 42.3409 25.139 41.1728 25.139 39.7368C25.139 38.3009 26.3111 37.1322 27.7518 37.1322C29.1877 37.1322 30.3562 38.3009 30.3562 39.7368C30.3562 41.1728 29.1877 42.3409 27.7518 42.3409Z" fill="#1A2E35"/>
<path d="M39.3241 35.8293C37.1648 35.8293 35.4082 37.5821 35.4082 39.737C35.4082 41.8912 37.1648 43.6439 39.3241 43.6439C41.4786 43.6439 43.2313 41.8911 43.2313 39.737C43.2313 37.5821 41.4786 35.8293 39.3241 35.8293ZM39.3241 42.3409C37.8834 42.3409 36.7112 41.1728 36.7112 39.7368C36.7112 38.3009 37.8834 37.1322 39.3241 37.1322C40.76 37.1322 41.9284 38.3009 41.9284 39.7368C41.9284 41.1728 40.76 42.3409 39.3241 42.3409Z" fill="#1A2E35"/>
<path d="M54.8016 39.737C54.8016 37.5821 53.0488 35.8293 50.8944 35.8293C48.7351 35.8293 46.9785 37.5821 46.9785 39.737C46.9785 41.8912 48.7351 43.6439 50.8944 43.6439C53.0489 43.6439 54.8016 41.8911 54.8016 39.737ZM50.8944 42.3409C49.4537 42.3409 48.2815 41.1728 48.2815 39.7368C48.2815 38.3009 49.4537 37.1322 50.8944 37.1322C52.3303 37.1322 53.4987 38.3009 53.4987 39.7368C53.4987 41.1728 52.3303 42.3409 50.8944 42.3409Z" fill="#1A2E35"/>
<path d="M58.5857 4.43104H53.357V0.906456C53.357 0.54639 53.0654 0.25502 52.7056 0.25502C52.3458 0.25502 52.0542 0.54639 52.0542 0.906456V4.43104H13.4582V0.906456C13.4582 0.54639 13.1666 0.25502 12.8068 0.25502C12.447 0.25502 12.1554 0.54639 12.1554 0.906456V4.43104H8.48223C6.75812 4.43104 5.35562 5.83382 5.35562 7.55807C5.35534 13.2883 5.35367 50.6848 5.35367 50.9291H1.16315C0.803367 50.9291 0.511719 51.2205 0.511719 51.5805C0.511719 54.4732 2.69581 56.7191 5.35353 57.0329V59.6699C5.35353 61.394 6.75631 62.7969 8.48056 62.7969H58.5858C60.3099 62.7969 61.7128 61.3941 61.7128 59.6699C61.7128 48.1802 61.7128 18.4647 61.7128 7.55807C61.7127 5.83382 60.3099 4.43104 58.5857 4.43104ZM8.48209 5.73405H12.1552V10.9039C12.1552 11.2639 12.4469 11.5553 12.8067 11.5553C13.1664 11.5553 13.4581 11.2639 13.4581 10.9039V5.73405H52.054V10.9039C52.054 11.2639 52.3457 11.5553 52.7055 11.5553C53.0653 11.5553 53.3569 11.2639 53.3569 10.9039V5.73405H58.5855C59.5913 5.73405 60.4096 6.55228 60.4096 7.55807V16.0731H6.65835V7.55793C6.65835 6.55214 7.47658 5.73405 8.48209 5.73405ZM6.65654 17.3766H60.4098V51.5786C60.4098 53.891 58.5319 55.7723 56.2232 55.7735C56.2211 55.7735 56.2196 55.7724 56.2175 55.7724C53.9026 55.7724 52.0255 53.8963 52.0255 51.5804C52.0255 51.2203 51.7338 50.9289 51.374 50.9289H6.65654V17.3766ZM1.8642 52.232H50.7606C50.9238 53.6194 51.6046 54.8707 52.6655 55.7724H6.00691C3.89737 55.7724 2.16936 54.2184 1.8642 52.232ZM60.4097 59.6699C60.4097 60.6757 59.5915 61.4939 58.5857 61.4939H8.48056C7.47477 61.4939 6.65654 60.6758 6.65654 59.6699V57.0767H56.2207C57.899 57.0767 59.4017 56.3173 60.4098 55.1259V59.6699H60.4097Z" fill="#1A2E35"/>
</svg>
